<svg aria-hidden="true" style="position: absolute; width: 0; height: 0; overflow: hidden;" version="1.1" xmlns="http://www.w3.org/2000/svg" xmlns:xlink="http://www.w3.org/1999/xlink">
<defs>
<symbol id="icon-google" viewBox="0 0 32 32">
<path fill="#4285f4" style="fill: var(--color1, #4285f4)" d="M16.32 13.713v5.487h9.075c-0.367 2.353-2.741 6.899-9.075 6.899-5.46 0-9.919-4.519-9.919-10.099s4.46-10.099 9.919-10.099c3.107 0 5.188 1.319 6.38 2.465l4.339-4.184c-2.787-2.601-6.4-4.183-10.719-4.183-8.847 0-16 7.153-16 16s7.153 16 16 16c9.235 0 15.36-6.492 15.36-15.635 0-1.051-0.113-1.853-0.252-2.652z"></path>
</symbol>
<symbol id="icon-gmail" viewBox="0 0 32 32">
<path fill="#d14836" style="fill: var(--color2, #d14836)" d="M32 6v20c0 1.133-0.867 2-2 2h-2v-18.151l-12 8.617-12-8.617v18.151h-2c-1.135 0-2-0.867-2-2v-20c0-0.567 0.216-1.067 0.575-1.424 0.359-0.363 0.86-0.576 1.425-0.576h0.667l13.333 9.667 13.333-9.667h0.667c0.567 0 1.067 0.216 1.425 0.576 0.36 0.357 0.575 0.857 0.575 1.424z"></path>
</symbol>
</defs>
</svg>
